<?xml version="1.0" encoding="utf-8"?>
<!-- Generator: Adobe Illustrator 22.1.0, SVG Export Plug-In . SVG Version: 6.00 Build 0)  -->
<svg version="1.1" id="Layer_1" xmlns="http://www.w3.org/2000/svg" xmlns:xlink="http://www.w3.org/1999/xlink" x="0px" y="0px"
	 viewBox="0 0 170.5 170.3" style="enable-background:new 0 0 170.5 170.3;" xml:space="preserve">
<style type="text/css">
	.st0{fill:url(#SVGID_1_);}
	.st1{fill:#FFFFFF;}
</style>
<g id="Edges">
</g>
<g id="Background_1_">
	
		<radialGradient id="SVGID_1_" cx="-224.3512" cy="121.6184" r="246.21" gradientTransform="matrix(5.233596e-02 -0.9986 -0.8488 -4.448556e-02 118.2565 -63.953)" gradientUnits="userSpaceOnUse">
		<stop  offset="0" style="stop-color:#FED576"/>
		<stop  offset="0.2634" style="stop-color:#F47133"/>
		<stop  offset="0.6091" style="stop-color:#BC3081"/>
		<stop  offset="1" style="stop-color:#4C63D2"/>
	</radialGradient>
	<path class="st0" d="M0.2,83v4.6c1.2,44,36.7,79.4,78.9,82.7h13c42.4-3.3,77.3-39,78.5-82.8V83c-1.2-44.5-37.2-80.6-80.7-82.9
		C43-2.3,1.5,35.3,0.2,83z"/>
</g>
<g id="Symbol">
	<g>
		<path class="st1" d="M85.7,42.8c13.6,0,15.2,0,20.5,0.3c5,0.2,7.6,1.1,9.4,1.8c2.4,0.9,4.1,2.1,5.8,3.8c1.8,1.8,2.9,3.5,3.8,5.9
			c0.7,1.8,1.5,4.6,1.8,9.6c0.3,5.5,0.3,7.1,0.3,20.9s0,15.4-0.3,20.9c-0.2,5-1,7.8-1.8,9.6c-0.9,2.4-2,4.1-3.8,5.9
			c-1.8,1.8-3.5,2.9-5.8,3.8c-1.8,0.7-4.5,1.5-9.4,1.8c-5.4,0.3-7,0.3-20.5,0.3s-15.2,0-20.5-0.3c-5-0.2-7.6-1.1-9.4-1.8
			c-2.4-0.9-4.1-2.1-5.8-3.8c-1.8-1.8-2.9-3.5-3.8-5.9c-0.7-1.8-1.5-4.6-1.8-9.6c-0.3-5.5-0.3-7.1-0.3-20.9s0-15.4,0.3-20.9
			c0.2-5,1-7.8,1.8-9.6c0.9-2.4,2-4.1,3.8-5.9c1.8-1.8,3.5-2.9,5.8-3.8c1.8-0.7,4.5-1.5,9.4-1.8C70.5,42.8,72.2,42.8,85.7,42.8
			 M85.7,33.5c-13.8,0-15.5,0.1-20.9,0.3c-5.4,0.3-9.1,1.1-12.3,2.4c-3.3,1.3-6.2,3.1-9,6c-2.8,2.9-4.6,5.8-5.9,9.2
			c-1.3,3.3-2.1,7.1-2.4,12.6s-0.3,7.3-0.3,21.3s0.1,15.8,0.3,21.3c0.3,5.5,1.1,9.2,2.4,12.6c1.3,3.4,3,6.3,5.9,9.2
			c2.8,2.9,5.6,4.6,9,6c3.2,1.3,6.9,2.2,12.3,2.4c5.4,0.3,7.2,0.3,20.9,0.3s15.5-0.1,20.9-0.3c5.4-0.3,9.1-1.1,12.3-2.4
			c3.3-1.3,6.2-3.1,9-6c2.8-2.9,4.6-5.8,5.9-9.2c1.3-3.3,2.1-7.1,2.4-12.6c0.3-5.5,0.3-7.3,0.3-21.3s-0.1-15.8-0.3-21.3
			c-0.3-5.5-1.1-9.2-2.4-12.6c-1.3-3.4-3-6.3-5.9-9.2c-2.8-2.9-5.6-4.6-9-6c-3.2-1.3-6.9-2.2-12.3-2.4
			C101.3,33.5,99.5,33.5,85.7,33.5L85.7,33.5z"/>
		<path class="st1" d="M85.7,58.6c-14.4,0-26.1,11.9-26.1,26.5s11.7,26.5,26.1,26.5s26.1-11.9,26.1-26.5S100.1,58.6,85.7,58.6z
			 M85.7,102.4c-9.4,0-16.9-7.7-16.9-17.2s7.6-17.2,16.9-17.2s16.9,7.7,16.9,17.2S95.1,102.4,85.7,102.4z"/>
		<ellipse class="st1" cx="112.8" cy="57.6" rx="6.1" ry="6.2"/>
	</g>
</g>
</svg>
